{"title":"Marvels Agents of S.H.I.E.L.D. S01E02 HDTV 480p x264 - VYTO [P2P","uid":8987146,"size":145509503,"categoryP":"video","categoryS":"tv_shows","magnet":"?xt=urn:btih:79761f9e0f7c40b9230e2273542053ebc99bef84&amp;dn=Marvels+Agents+of+S.H.I.E.L.D.+S01E02+HDTV+480p+x264+-+VYTO+%5BP2P&amp;tr=udp%3A%2F%2Ftracker.openbittorrent.com%3A80&amp;tr=udp%3A%2F%2Fopen.demonii.com%3A1337&amp;tr=udp%3A%2F%2Ftracker.coppersurfer.tk%3A6969&amp;tr=udp%3A%2F%2Fexodus.desync.com%3A6969","seeders":2,"leechers":0,"uploader":"ValidusVyto","files":-1,"time":1380697147,"description":"_______ Visit us at our Semi Public Bittorrent Community ________\n  &lt;a href=&quot;\nhttp://p2pdl.com&quot; rel=&quot;nofollow&quot; target=&quot;_NEW&quot;&gt;\nhttp://p2pdl.com&lt;/a&gt;  _____________________________ &lt;a href=&quot; http://p2pdl.com&quot; rel=&quot;nofollow&quot; target=&quot;_NEW&quot;&gt; http://p2pdl.com&lt;/a&gt;\n\n\n\nMarvels Agents of S.H.I.E.L.D. S01E02 HDTV 480p x264 - VYTO\n\n\nMarvels Agents of S.H.I.E.L.D. S01E02 (0-8-4) \n &lt;a href=&quot;\nhttp://www.imdb.com/title/tt3130816/&quot; rel=&quot;nofollow&quot; target=&quot;_NEW&quot;&gt;\nhttp://www.imdb.com/title/tt3130816/&lt;/a&gt;\nThe missions of the Strategic Homeland Intervention, Enforcement and Logistics Division. \n\nFormat                         : MPEG-4\nFile size                      : 135 MiB\nDuration                       : 41mn 58s\nOverall bit rate               : 451 Kbps\n\nVideo\nFormat                         : AVC\nBit rate                       : 408 Kbps\nWidth                          : 720 pixels\nHeight                         : 400 pixels\nDisplay aspect ratio           : 16:9\nFrame rate mode                : Constant\nFrame rate                     : 23.976 fps\nBit depth                      : 10 bits\nStream size                    : 122 MiB (91%)\nWriting library                : x264 core 138 r2358\nAudio\nFormat                         : AAC\nBit rate mode                  : Variable\nBit rate                       : 39.8 Kbps\nChannel(s)                     : 2 channels\nChannel positions              : Front: L R\nSampling rate                  : 48.0 KHz\nStream size                    : 11.9 MiB (9%)\n\nSubtitle                       : N/a\n\nSource                         : 720p.HDTV.X264-DIMENSION\n &lt;a href=&quot;\nhttp://ultraimg.com/images/fcujw.png&quot; rel=&quot;nofollow&quot; target=&quot;_NEW&quot;&gt;\nhttp://ultraimg.com/images/fcujw.png&lt;/a&gt; &lt;a href=&quot;\nhttp://ultraimg.com/images/L3he9.png&quot; rel=&quot;nofollow&quot; target=&quot;_NEW&quot;&gt;\nhttp://ultraimg.com/images/L3he9.png&lt;/a&gt; &lt;a href=&quot;\nhttp://ultraimg.com/images/ieSKM.png&quot; rel=&quot;nofollow&quot; target=&quot;_NEW&quot;&gt;\nhttp://ultraimg.com/images/ieSKM.png&lt;/a&gt; &lt;a href=&quot;\nhttp://ultraimg.com/images/M6v2L.png&quot; rel=&quot;nofollow&quot; target=&quot;_NEW&quot;&gt;\nhttp://ultraimg.com/images/M6v2L.png&lt;/a&gt; &lt;a href=&quot;\nhttp://ultraimg.com/images/isUVj.png&quot; rel=&quot;nofollow&quot; target=&quot;_NEW&quot;&gt;\nhttp://ultraimg.com/images/isUVj.png&lt;/a&gt; &lt;a href=&quot;\nhttp://ultraimg.com/images/YorBD.png&quot; rel=&quot;nofollow&quot; target=&quot;_NEW&quot;&gt;\nhttp://ultraimg.com/images/YorBD.png&lt;/a&gt; &lt;a href=&quot;\nhttp://ultraimg.com/images/pCxTh.png&quot; rel=&quot;nofollow&quot; target=&quot;_NEW&quot;&gt;\nhttp://ultraimg.com/images/pCxTh.png&lt;/a&gt; &lt;a href=&quot;\nhttp://ultraimg.com/images/isTbZ.png&quot; rel=&quot;nofollow&quot; target=&quot;_NEW&quot;&gt;\nhttp://ultraimg.com/images/isTbZ.png&lt;/a&gt;\n\n----------------------------------------------------------------------------------------------------\n\n\nEncoded using revolutionary 10bit encoding, which enables us to provide you more crispier \nand sharper images at small sizes, just make sure you follow our instructions without a fault.\nRecommend to you to use latest version of VLC player. Install K-Lite Codec Pack or shark007 codecs\nin case of any kind of problem in playback (For non-VLC Media Player users). Alternatively, install\nCore AVC codecs, the fastest decoder that there is coupled with Community Center Codec Pack and play\non Windows Media Player Classic. Check sample to be sure.\nEnjoy!\n\nEncoder Notes:Looking For Early Access To Anything You Can Provide DVDScr, R5, DVDR, BluRay, Direct\nAudio, Music Releases and Seedboxes. We require dedicated servers, so as to do more \nand fast releases of movies.\nIf You Got anything to offer please contact us at &quot;&lt;a class=&quot;__cf_email__&quot; href=&quot;/cdn-cgi/l/email-protection&quot; data-cfemail=&quot;dfafadb89fb7aaacb7f1bcb0b2&quot;&gt;[email&amp;#160;protected]&lt;/a&gt;&lt;script cf-hash='f9e31' type=&quot;text/javascript&quot;&gt;\n/* &lt;![CDATA[ */!function(){try{var t=&quot;currentScript&quot;in document?document.currentScript:function(){for(var t=document.getElementsByTagName(&quot;script&quot;),e=t.length;e--;)if(t[e].getAttribute(&quot;cf-hash&quot;))return t[e]}();if(t&amp;&amp;t.previousSibling){var e,r,n,i,c=t.previousSibling,a=c.getAttribute(&quot;data-cfemail&quot;);if(a){for(e=&quot;&quot;,r=parseInt(a.substr(0,2),16),n=2;a.length-n;n+=2)i=parseInt(a.substr(n,2),16)^r,e+=String.fromCharCode(i);e=document.createTextNode(e),c.parentNode.replaceChild(e,c)}}}catch(u){}}();/* ]]&gt; */&lt;/script&gt;&quot;.\n\nFacebook Fan Page:  \nSearch P2PDL on FB and hit like!!!\n\nFor more of our team uploads visit @                                             &lt;a href=&quot; http://thepiratebay.se/user/vitamin_x&quot; rel=&quot;nofollow&quot; target=&quot;_NEW&quot;&gt; http://thepiratebay.se/user/vitamin_x&lt;/a&gt;\t","torrent":{"xt":"urn:btih:79761f9e0f7c40b9230e2273542053ebc99bef84","amp;dn":"Marvels+Agents+of+S.H.I.E.L.D.+S01E02+HDTV+480p+x264+-+VYTO+%5BP2P","amp;tr":["udp%3A%2F%2Ftracker.openbittorrent.com%3A80","udp%3A%2F%2Fopen.demonii.com%3A1337","udp%3A%2F%2Ftracker.coppersurfer.tk%3A6969","udp%3A%2F%2Fexodus.desync.com%3A6969"],"infoHash":"79761f9e0f7c40b9230e2273542053ebc99bef84","infoHashBuffer":{"type":"Buffer","data":[121,118,31,158,15,124,64,185,35,14,34,115,84,32,83,235,201,155,239,132]},"announce":[],"urlList":[]}}